<svg version="1.1" id="Layer_1" xmlns="http://www.w3.org/2000/svg" xmlns:xlink="http://www.w3.org/1999/xlink" x="0px" y="0px"
	 width="100%" viewBox="0 0 512 512" enable-background="new 0 0 512 512" xml:space="preserve">
<path fill="#262659" opacity="1.000000" stroke="none" 
	d="
M312.000000,513.000000 
	C208.025253,513.000000 104.550499,513.000000 1.037875,513.000000 
	C1.037875,342.400238 1.037875,171.800446 1.037875,1.100329 
	C171.558090,1.100329 342.116272,1.100329 512.837219,1.100329 
	C512.837219,171.666534 512.837219,342.333252 512.837219,513.000000 
	C446.133759,513.000000 379.316864,513.000000 312.000000,513.000000 
M238.063522,71.471275 
	C235.578003,71.705956 233.071579,71.807823 230.610031,72.194931 
	C181.733246,79.881432 141.389435,102.767395 110.617554,141.440353 
	C78.322350,182.027786 65.177139,228.783905 72.092201,280.046814 
	C81.900429,352.757355 122.215828,402.992188 189.487534,431.406372 
	C210.821152,440.417236 233.561096,444.244232 256.830231,443.921692 
	C267.599701,443.772461 275.983246,435.466980 275.893921,425.391937 
	C275.800476,414.853241 267.972992,407.257141 256.892975,406.864288 
	C253.901703,406.758240 250.921646,406.363708 247.930832,406.212067 
	C212.336761,404.407684 181.600037,390.743256 155.641617,366.843353 
	C127.246658,340.700134 111.134094,307.833252 108.319115,269.391296 
	C104.343666,215.101624 124.693314,170.795227 167.683929,137.736740 
	C217.131104,99.713379 285.849884,97.793724 338.281403,132.086075 
	C347.494049,138.111542 355.771088,145.567490 364.755493,152.577591 
	C358.768738,158.910004 353.472107,163.996414 348.878723,169.653793 
	C347.292694,171.607193 346.185883,175.624084 347.154053,177.538025 
	C348.274963,179.753937 351.899994,181.935440 354.479095,181.984879 
	C373.635712,182.352173 392.802795,182.235855 411.966095,182.155884 
	C417.536896,182.132645 420.645294,179.480637 420.700684,174.034317 
	C420.897247,154.706589 420.955627,135.372055 420.564911,116.050255 
	C420.513519,113.509171 418.082886,110.243874 415.811493,108.710197 
	C412.787964,106.668694 409.438049,108.230347 406.855499,110.845993 
	C402.640747,115.114815 398.240112,119.210052 394.190338,123.628258 
	C391.659637,126.389183 389.947754,126.214584 387.284851,123.662743 
	C345.758606,83.868134 296.073151,67.046555 238.063522,71.471275 
M298.195251,289.697540 
	C303.891937,284.349640 310.124573,279.461456 315.181824,273.565125 
	C328.746185,257.750244 337.644531,239.700378 338.031403,218.417511 
	C338.539917,190.439667 322.735077,166.152740 297.911346,157.538086 
	C267.766510,147.076843 237.867523,149.781799 208.633377,161.418198 
	C204.752853,162.962784 200.962341,166.441879 198.692871,170.017075 
	C190.693817,182.618301 186.612732,196.663315 186.072861,211.590591 
	C185.753738,220.414490 189.770828,223.011154 198.014359,219.873428 
	C202.751373,218.070374 207.507004,216.316162 213.082062,214.230255 
	C212.646805,216.014023 212.477188,216.762543 212.281342,217.504150 
	C201.361511,258.854767 190.422287,300.200287 179.529617,341.558044 
	C176.774658,352.018158 178.258270,355.986023 188.740646,359.381195 
	C197.181061,362.115021 206.210754,363.290222 215.074783,364.372681 
	C222.149933,365.236694 224.917694,362.893188 227.341339,356.066223 
	C228.119232,353.875031 228.773911,351.628265 229.312546,349.365845 
	C233.516525,331.707916 237.627457,314.027679 241.879517,296.381409 
	C243.489777,289.698761 245.395645,283.087372 247.166763,276.443481 
	C248.454956,283.611023 248.958038,290.576782 249.927780,297.476929 
	C250.892502,304.341492 252.540039,305.637360 259.570953,305.114655 
	C273.772614,304.058838 286.148712,298.199951 298.195251,289.697540 
M323.587128,392.170074 
	C318.511902,394.250305 313.387177,396.218475 308.371765,398.434174 
	C298.123871,402.961487 293.897369,412.652649 297.698792,422.582733 
	C301.427795,432.323669 310.739105,436.681061 321.312103,433.252869 
	C336.113953,428.453430 349.883057,421.427094 362.696533,412.651398 
	C371.446655,406.658630 373.677490,395.430847 368.262421,387.134949 
	C362.435852,378.208618 351.461670,375.970215 341.981415,381.649139 
	C336.136383,385.150421 330.179260,388.464569 323.587128,392.170074 
M380.689575,346.445374 
	C378.971680,355.626373 382.356628,363.030243 390.085510,366.996887 
	C397.364716,370.732727 407.659729,369.432373 412.779755,362.392487 
	C418.502899,354.523376 423.450439,345.851227 427.262329,336.901093 
	C430.771179,328.662476 426.199463,319.502502 418.340057,315.304565 
	C411.123566,311.450043 400.037994,313.002014 395.625244,319.653076 
	C390.129944,327.935883 385.745911,336.955902 380.689575,346.445374 
M445.090454,272.545959 
	C445.277985,267.227112 445.863068,261.886200 445.568909,256.594116 
	C444.988373,246.150513 437.869110,239.105255 428.226593,238.813736 
	C417.613922,238.492874 410.031677,244.720062 408.731812,255.405457 
	C407.889771,262.327545 407.388977,269.334900 407.379852,276.304901 
	C407.363647,288.667542 419.113220,297.428345 431.164886,294.414825 
	C440.515167,292.076721 444.422485,286.183105 445.090454,272.545959 
z"/>
<path fill="#53907E" opacity="1.000000" stroke="none" 
	d="
M238.517548,71.382790 
	C296.073151,67.046555 345.758606,83.868134 387.284851,123.662743 
	C389.947754,126.214584 391.659637,126.389183 394.190338,123.628258 
	C398.240112,119.210052 402.640747,115.114815 406.855499,110.845993 
	C409.438049,108.230347 412.787964,106.668694 415.811493,108.710197 
	C418.082886,110.243874 420.513519,113.509171 420.564911,116.050255 
	C420.955627,135.372055 420.897247,154.706589 420.700684,174.034317 
	C420.645294,179.480637 417.536896,182.132645 411.966095,182.155884 
	C392.802795,182.235855 373.635712,182.352173 354.479095,181.984879 
	C351.899994,181.935440 348.274963,179.753937 347.154053,177.538025 
	C346.185883,175.624084 347.292694,171.607193 348.878723,169.653793 
	C353.472107,163.996414 358.768738,158.910004 364.755493,152.577591 
	C355.771088,145.567490 347.494049,138.111542 338.281403,132.086075 
	C285.849884,97.793724 217.131104,99.713379 167.683929,137.736740 
	C124.693314,170.795227 104.343666,215.101624 108.319115,269.391296 
	C111.134094,307.833252 127.246658,340.700134 155.641617,366.843353 
	C181.600037,390.743256 212.336761,404.407684 247.930832,406.212067 
	C250.921646,406.363708 253.901703,406.758240 256.892975,406.864288 
	C267.972992,407.257141 275.800476,414.853241 275.893921,425.391937 
	C275.983246,435.466980 267.599701,443.772461 256.830231,443.921692 
	C233.561096,444.244232 210.821152,440.417236 189.487534,431.406372 
	C122.215828,402.992188 81.900429,352.757355 72.092201,280.046814 
	C65.177139,228.783905 78.322350,182.027786 110.617554,141.440353 
	C141.389435,102.767395 181.733246,79.881432 230.610031,72.194931 
	C233.071579,71.807823 235.578003,71.705956 238.517548,71.382790 
z"/>
<path fill="#FDFDFD" opacity="1.000000" stroke="none" 
	d="
M297.901001,289.899109 
	C286.148712,298.199951 273.772614,304.058838 259.570953,305.114655 
	C252.540039,305.637360 250.892502,304.341492 249.927780,297.476929 
	C248.958038,290.576782 248.454956,283.611023 247.166763,276.443481 
	C245.395645,283.087372 243.489777,289.698761 241.879517,296.381409 
	C237.627457,314.027679 233.516525,331.707916 229.312546,349.365845 
	C228.773911,351.628265 228.119232,353.875031 227.341339,356.066223 
	C224.917694,362.893188 222.149933,365.236694 215.074783,364.372681 
	C206.210754,363.290222 197.181061,362.115021 188.740646,359.381195 
	C178.258270,355.986023 176.774658,352.018158 179.529617,341.558044 
	C190.422287,300.200287 201.361511,258.854767 212.281342,217.504150 
	C212.477188,216.762543 212.646805,216.014023 213.082062,214.230255 
	C207.507004,216.316162 202.751373,218.070374 198.014359,219.873428 
	C189.770828,223.011154 185.753738,220.414490 186.072861,211.590591 
	C186.612732,196.663315 190.693817,182.618301 198.692871,170.017075 
	C200.962341,166.441879 204.752853,162.962784 208.633377,161.418198 
	C237.867523,149.781799 267.766510,147.076843 297.911346,157.538086 
	C322.735077,166.152740 338.539917,190.439667 338.031403,218.417511 
	C337.644531,239.700378 328.746185,257.750244 315.181824,273.565125 
	C310.124573,279.461456 303.891937,284.349640 297.901001,289.899109 
M284.437347,220.045837 
	C283.700073,213.499878 280.278992,208.721619 274.204834,206.447388 
	C261.208801,201.581573 248.201584,204.312592 235.182312,206.979980 
	C240.688477,209.281784 246.363464,210.832230 251.798401,212.987885 
	C261.019958,216.645432 263.102509,220.986679 260.555847,230.426773 
	C258.635895,237.543564 256.525085,244.608856 254.139282,252.956604 
	C258.414093,251.350830 261.762787,250.473709 264.747314,248.904205 
	C276.063904,242.953064 284.561066,234.876740 284.437347,220.045837 
z"/>
<path fill="#A73F55" opacity="1.000000" stroke="none" 
	d="
M323.929810,392.016418 
	C330.179260,388.464569 336.136383,385.150421 341.981415,381.649139 
	C351.461670,375.970215 362.435852,378.208618 368.262421,387.134949 
	C373.677490,395.430847 371.446655,406.658630 362.696533,412.651398 
	C349.883057,421.427094 336.113953,428.453430 321.312103,433.252869 
	C310.739105,436.681061 301.427795,432.323669 297.698792,422.582733 
	C293.897369,412.652649 298.123871,402.961487 308.371765,398.434174 
	C313.387177,396.218475 318.511902,394.250305 323.929810,392.016418 
z"/>
<path fill="#A73F55" opacity="1.000000" stroke="none" 
	d="
M380.785797,346.051453 
	C385.745911,336.955902 390.129944,327.935883 395.625244,319.653076 
	C400.037994,313.002014 411.123566,311.450043 418.340057,315.304565 
	C426.199463,319.502502 430.771179,328.662476 427.262329,336.901093 
	C423.450439,345.851227 418.502899,354.523376 412.779755,362.392487 
	C407.659729,369.432373 397.364716,370.732727 390.085510,366.996887 
	C382.356628,363.030243 378.971680,355.626373 380.785797,346.051453 
z"/>
<path fill="#A73F55" opacity="1.000000" stroke="none" 
	d="
M445.070618,273.007935 
	C444.422485,286.183105 440.515167,292.076721 431.164886,294.414825 
	C419.113220,297.428345 407.363647,288.667542 407.379852,276.304901 
	C407.388977,269.334900 407.889771,262.327545 408.731812,255.405457 
	C410.031677,244.720062 417.613922,238.492874 428.226593,238.813736 
	C437.869110,239.105255 444.988373,246.150513 445.568909,256.594116 
	C445.863068,261.886200 445.277985,267.227112 445.070618,273.007935 
z"/>
<path fill="#2C2C5E" opacity="1.000000" stroke="none" 
	d="
M284.492371,220.455139 
	C284.561066,234.876740 276.063904,242.953064 264.747314,248.904205 
	C261.762787,250.473709 258.414093,251.350830 254.139282,252.956604 
	C256.525085,244.608856 258.635895,237.543564 260.555847,230.426773 
	C263.102509,220.986679 261.019958,216.645432 251.798401,212.987885 
	C246.363464,210.832230 240.688477,209.281784 235.182312,206.979980 
	C248.201584,204.312592 261.208801,201.581573 274.204834,206.447388 
	C280.278992,208.721619 283.700073,213.499878 284.492371,220.455139 
z"/>
</svg>